<?xml version="1.0" encoding="utf-8"?>
<!-- Generator: Adobe Illustrator 27.2.0, SVG Export Plug-In . SVG Version: 6.00 Build 0)  -->
<svg version="1.1" id="Layer_1" xmlns="http://www.w3.org/2000/svg" xmlns:xlink="http://www.w3.org/1999/xlink" x="0px" y="0px"
	 viewBox="0 0 76.4 54.9" style="enable-background:new 0 0 76.4 54.9;" xml:space="preserve">
<g>
	<path d="M36.2,37.9c-1.4,0-2.8-0.3-4.1-0.8l-17.3-6.8v11c0,5.4,9.6,9.7,21.4,9.7s21.4-4.3,21.4-9.7v-11l-17.3,6.8
		C39,37.7,37.6,37.9,36.2,37.9L36.2,37.9z"/>
	<path d="M69.4,19.1l-30.3-12c-1.9-0.8-4-0.8-5.9,0l-30.3,12c-0.7,0.3-1.2,1-1.2,1.7c0,0.8,0.5,1.4,1.2,1.7l4.2,1.7v12
		c-0.9,0.6-1.6,1.7-1.6,3c0,1.1,0.5,2.1,1.3,2.8l-1.3,6.2c-0.2,0.8,0,1.7,0.6,2.4c0.5,0.7,1.3,1,2.2,1h1.5c0.8,0,1.7-0.4,2.2-1
		c0.5-0.7,0.7-1.5,0.6-2.4L11.4,42c0.8-0.7,1.3-1.7,1.3-2.8c0-1.2-0.6-2.3-1.6-3V25.8l21.9,8.7c2,0.8,4.2,0.8,6.1,0l30.2-12
		c0.7-0.3,1.2-1,1.2-1.7C70.6,20.1,70.2,19.4,69.4,19.1z"/>
</g>
</svg>
