<?xml version="1.0" encoding="utf-8"?>
<!-- Generator: Adobe Illustrator 27.2.0, SVG Export Plug-In . SVG Version: 6.00 Build 0)  -->
<svg version="1.1" id="Layer_1" xmlns="http://www.w3.org/2000/svg" xmlns:xlink="http://www.w3.org/1999/xlink" x="0px" y="0px"
	 viewBox="0 0 20.3 17.2" style="enable-background:new 0 0 20.3 17.2;" xml:space="preserve">
<g>
	<path d="M10.1,10.5c-0.3,0-0.7-0.1-1-0.2L4.9,8.7v2.7c0,1.3,2.3,2.4,5.2,2.4s5.2-1,5.2-2.4V8.7l-4.2,1.7
		C10.8,10.5,10.4,10.5,10.1,10.5L10.1,10.5z"/>
	<path d="M18.1,6l-7.4-2.9c-0.5-0.2-1-0.2-1.4,0L2,6C1.8,6,1.7,6.2,1.7,6.4c0,0.2,0.1,0.3,0.3,0.4l1,0.4v2.9
		c-0.2,0.1-0.4,0.4-0.4,0.7c0,0.3,0.1,0.5,0.3,0.7L2.6,13c0,0.2,0,0.4,0.1,0.6c0.1,0.2,0.3,0.2,0.5,0.2h0.4c0.2,0,0.4-0.1,0.5-0.2
		c0.1-0.2,0.2-0.4,0.1-0.6l-0.3-1.5c0.2-0.2,0.3-0.4,0.3-0.7c0-0.3-0.1-0.6-0.4-0.7V7.6l5.3,2.1c0.5,0.2,1,0.2,1.5,0l7.3-2.9
		c0.2-0.1,0.3-0.2,0.3-0.4C18.4,6.2,18.3,6,18.1,6z"/>
</g>
</svg>
